Results
version=1
nRows=4
nColumns=171
inDegrees=yes
endheader
time	/jointset/ground_pelvis/pelvis_tilt/value	/jointset/ground_pelvis/pelvis_tilt/speed	/jointset/ground_pelvis/pelvis_list/value	/jointset/ground_pelvis/pelvis_list/speed	/jointset/ground_pelvis/pelvis_rotation/value	/jointset/ground_pelvis/pelvis_rotation/speed	/jointset/ground_pelvis/pelvis_tx/value	/jointset/ground_pelvis/pelvis_tx/speed	/jointset/ground_pelvis/pelvis_ty/value	/jointset/ground_pelvis/pelvis_ty/speed	/jointset/ground_pelvis/pelvis_tz/value	/jointset/ground_pelvis/pelvis_tz/speed	/jointset/hip_r/hip_flexion_r/value	/jointset/hip_r/hip_flexion_r/speed	/jointset/hip_r/hip_adduction_r/value	/jointset/hip_r/hip_adduction_r/speed	/jointset/hip_r/hip_rotation_r/value	/jointset/hip_r/hip_rotation_r/speed	/jointset/walker_knee_r/knee_angle_r/value	/jointset/walker_knee_r/knee_angle_r/speed	/jointset/patellofemoral_r/knee_angle_r_beta/value	/jointset/patellofemoral_r/knee_angle_r_beta/speed	/jointset/ankle_r/ankle_angle_r/value	/jointset/ankle_r/ankle_angle_r/speed	/jointset/subtalar_r/subtalar_angle_r/value	/jointset/subtalar_r/subtalar_angle_r/speed	/jointset/mtp_r/mtp_angle_r/value	/jointset/mtp_r/mtp_angle_r/speed	/jointset/hip_l/hip_flexion_l/value	/jointset/hip_l/hip_flexion_l/speed	/jointset/hip_l/hip_adduction_l/value	/jointset/hip_l/hip_adduction_l/speed	/jointset/hip_l/hip_rotation_l/value	/jointset/hip_l/hip_rotation_l/speed	/jointset/walker_knee_l/knee_angle_l/value	/jointset/walker_knee_l/knee_angle_l/speed	/jointset/patellofemoral_l/knee_angle_l_beta/value	/jointset/patellofemoral_l/knee_angle_l_beta/speed	/jointset/ankle_l/ankle_angle_l/value	/jointset/ankle_l/ankle_angle_l/speed	/jointset/subtalar_l/subtalar_angle_l/value	/jointset/subtalar_l/subtalar_angle_l/speed	/jointset/mtp_l/mtp_angle_l/value	/jointset/mtp_l/mtp_angle_l/speed	/forceset/addbrev_r/activation	/forceset/addlong_r/activation	/forceset/addlong_r/fiber_length	/forceset/addmagDist_r/activation	/forceset/addmagIsch_r/activation	/forceset/addmagIsch_r/fiber_length	/forceset/addmagMid_r/activation	/forceset/addmagProx_r/activation	/forceset/bflh140_r/activation	/forceset/bflh140_r/fiber_length	/forceset/bfsh140_r/activation	/forceset/edl_r/activation	/forceset/edl_r/fiber_length	/forceset/ehl_r/activation	/forceset/ehl_r/fiber_length	/forceset/fdl_r/activation	/forceset/fdl_r/fiber_length	/forceset/fhl_r/activation	/forceset/fhl_r/fiber_length	/forceset/gaslat140_r/activation	/forceset/gaslat140_r/fiber_length	/forceset/gasmed_r/activation	/forceset/gasmed_r/fiber_length	/forceset/glmax1_r/activation	/forceset/glmax2_r/activation	/forceset/glmax3_r/activation	/forceset/glmed1_r/activation	/forceset/glmed2_r/activation	/forceset/glmed3_r/activation	/forceset/glmin1_r/activation	/forceset/glmin2_r/activation	/forceset/glmin3_r/activation	/forceset/glmin3_r/fiber_length	/forceset/grac_r/activation	/forceset/iliacus_r/activation	/forceset/perbrev_r/activation	/forceset/perbrev_r/fiber_length	/forceset/perlong_r/activation	/forceset/perlong_r/fiber_length	/forceset/piri_r/activation	/forceset/piri_r/fiber_length	/forceset/psoas_r/activation	/forceset/recfem_r/activation	/forceset/recfem_r/fiber_length	/forceset/sart_r/activation	/forceset/semimem_r/activation	/forceset/semimem_r/fiber_length	/forceset/semiten_r/activation	/forceset/semiten_r/fiber_length	/forceset/soleus_r/activation	/forceset/soleus_r/fiber_length	/forceset/tfl_r/activation	/forceset/tfl_r/fiber_length	/forceset/tibant_r/activation	/forceset/tibant_r/fiber_length	/forceset/tibpost_r/activation	/forceset/tibpost_r/fiber_length	/forceset/vasint_r/activation	/forceset/vasint_r/fiber_length	/forceset/vaslat140_r/activation	/forceset/vaslat140_r/fiber_length	/forceset/vasmed_r/activation	/forceset/vasmed_r/fiber_length	/forceset/addbrev_l/activation	/forceset/addlong_l/activation	/forceset/addlong_l/fiber_length	/forceset/addmagDist_l/activation	/forceset/addmagIsch_l/activation	/forceset/addmagIsch_l/fiber_length	/forceset/addmagMid_l/activation	/forceset/addmagProx_l/activation	/forceset/bflh140_l/activation	/forceset/bflh140_l/fiber_length	/forceset/bfsh140_l/activation	/forceset/edl_l/activation	/forceset/edl_l/fiber_length	/forceset/ehl_l/activation	/forceset/ehl_l/fiber_length	/forceset/fdl_l/activation	/forceset/fdl_l/fiber_length	/forceset/fhl_l/activation	/forceset/fhl_l/fiber_length	/forceset/gaslat140_l/activation	/forceset/gaslat140_l/fiber_length	/forceset/gasmed_l/activation	/forceset/gasmed_l/fiber_length	/forceset/glmax1_l/activation	/forceset/glmax2_l/activation	/forceset/glmax3_l/activation	/forceset/glmed1_l/activation	/forceset/glmed2_l/activation	/forceset/glmed3_l/activation	/forceset/glmin1_l/activation	/forceset/glmin2_l/activation	/forceset/glmin3_l/activation	/forceset/glmin3_l/fiber_length	/forceset/grac_l/activation	/forceset/iliacus_l/activation	/forceset/perbrev_l/activation	/forceset/perbrev_l/fiber_length	/forceset/perlong_l/activation	/forceset/perlong_l/fiber_length	/forceset/piri_l/activation	/forceset/piri_l/fiber_length	/forceset/psoas_l/activation	/forceset/recfem_l/activation	/forceset/recfem_l/fiber_length	/forceset/sart_l/activation	/forceset/semimem_l/activation	/forceset/semimem_l/fiber_length	/forceset/semiten_l/activation	/forceset/semiten_l/fiber_length	/forceset/soleus_l/activation	/forceset/soleus_l/fiber_length	/forceset/tfl_l/activation	/forceset/tfl_l/fiber_length	/forceset/tibant_l/activation	/forceset/tibant_l/fiber_length	/forceset/tibpost_l/activation	/forceset/tibpost_l/fiber_length	/forceset/vasint_l/activation	/forceset/vasint_l/fiber_length	/forceset/vaslat140_l/activation	/forceset/vaslat140_l/fiber_length	/forceset/vasmed_l/activation	/forceset/vasmed_l/fiber_length
      0.13832480	      1.66411646	      2.17827660	     -0.00000001	     -0.00000004	      0.00000000	      0.00000001	      0.00011365	      0.00393866	      0.83866411	     -1.35296517	      0.00000000	      0.00000000	     -2.86924265	     -9.66669917	      0.61566182	      9.98764428	     -7.98170324	    -97.06293487	     -3.47182439	    -24.16769573	     -0.06059477	     -0.42180586	    -17.18365206	    -59.94702804	      4.30963014	     55.98993208	      0.00000000	      0.00000000	     -2.86924265	     -9.66669918	      0.61566180	      9.98764407	     -7.98170323	    -97.06293472	     -3.47182421	    -24.16769575	     -0.06059476	     -0.42180586	    -17.18365204	    -59.94702814	      4.30963013	     55.98993201	      0.00000000	      0.00000000	     -0.00780932	     -0.00780932	      0.11510285	     -0.00780932	     -0.00780932	      0.12360528	     -0.00780932	     -0.00780932	     -0.00780932	      0.08828649	     -0.00780932	     -0.00780932	      0.07943443	     -0.00780932	      0.08797166	     -0.00780932	      0.04150883	     -0.00780932	      0.04594038	     -0.00780932	      0.06143977	     -0.00780932	      0.05244207	     -0.00780932	     -0.00780932	     -0.00780932	     -0.00780932	     -0.00780932	     -0.00780932	     -0.00780932	     -0.00780932	     -0.00780932	      0.03568987	     -0.00780932	     -0.00780932	     -0.00780932	      0.04829466	     -0.00780932	      0.05305900	     -0.00780932	      0.01936438	     -0.00780932	     -0.00780932	      0.06235926	     -0.00780932	     -0.00780932	      0.08004896	     -0.00780932	      0.21238898	     -0.00780932	      0.03242086	     -0.00780932	      0.09971538	     -0.00780932	      0.07686323	     -0.00780932	      0.03505336	     -0.00780932	      0.07507927	     -0.00780932	      0.07825705	     -0.00780932	      0.07498402	     -0.00780932	     -0.00780932	      0.11510285	     -0.00780932	     -0.00780932	      0.12360528	     -0.00780932	     -0.00780932	     -0.00780932	      0.08828649	     -0.00780932	     -0.00780932	      0.07943443	     -0.00780932	      0.08797166	     -0.00780932	      0.04150883	     -0.00780932	      0.04594038	     -0.00780932	      0.06143977	     -0.00780932	      0.05244207	     -0.00780932	     -0.00780932	     -0.00780932	     -0.00780932	     -0.00780932	     -0.00780932	     -0.00780932	     -0.00780932	     -0.00780932	      0.03568987	     -0.00780932	     -0.00780932	     -0.00780932	      0.04829466	     -0.00780932	      0.05305900	     -0.00780932	      0.01936438	     -0.00780932	     -0.00780932	      0.06235926	     -0.00780932	     -0.00780932	      0.08004896	     -0.00780932	      0.21238898	     -0.00780932	      0.03242086	     -0.00780932	      0.09971538	     -0.00780932	      0.07686323	     -0.00780932	      0.03505336	     -0.00780932	      0.07507927	     -0.00780932	      0.07825705	     -0.00780932	      0.07498402
      0.14107653	      1.66974060	      1.91293179	     -0.00000001	     -0.00000004	      0.00000000	      0.00000001	      0.00012459	      0.00401702	      0.83490346	     -1.38032781	      0.00000000	      0.00000000	     -2.89541373	     -9.35898700	      0.64350840	     10.25170826	     -8.25009176	    -98.00193680	     -3.53834810	    -24.18374341	     -0.06175582	     -0.42208595	    -17.34716189	    -58.89402156	      4.46206036	     54.79995967	      0.00000000	      0.00000000	     -2.89541373	     -9.35898701	      0.64350838	     10.25170805	     -8.25009175	    -98.00193665	     -3.53834791	    -24.18374343	     -0.06175582	     -0.42208595	    -17.34716187	    -58.89402165	      4.46206034	     54.79995961	      0.00000000	      0.00000000	     -0.00816360	     -0.00816360	      0.11511862	     -0.00816360	     -0.00816360	      0.12359380	     -0.00816360	     -0.00816360	     -0.00816360	      0.08826399	     -0.00816360	     -0.00816360	      0.07954816	     -0.00816360	      0.08805148	     -0.00816360	      0.04142632	     -0.00816360	      0.04584966	     -0.00816360	      0.06132144	     -0.00816360	      0.05232682	     -0.00816360	     -0.00816360	     -0.00816360	     -0.00816360	     -0.00816360	     -0.00816360	     -0.00816360	     -0.00816360	     -0.00816360	      0.03562910	     -0.00816360	     -0.00816360	     -0.00816360	      0.04833113	     -0.00816360	      0.05308572	     -0.00816360	      0.01923817	     -0.00816360	     -0.00816360	      0.06232417	     -0.00816360	     -0.00816360	      0.08006307	     -0.00816360	      0.21240398	     -0.00816360	      0.03230826	     -0.00816360	      0.09973896	     -0.00816360	      0.07693529	     -0.00816360	      0.03496830	     -0.00816360	      0.07502949	     -0.00816360	      0.07821690	     -0.00816360	      0.07494604	     -0.00816360	     -0.00816360	      0.11511862	     -0.00816360	     -0.00816360	      0.12359380	     -0.00816360	     -0.00816360	     -0.00816360	      0.08826399	     -0.00816360	     -0.00816360	      0.07954816	     -0.00816360	      0.08805148	     -0.00816360	      0.04142632	     -0.00816360	      0.04584966	     -0.00816360	      0.06132144	     -0.00816360	      0.05232682	     -0.00816360	     -0.00816360	     -0.00816360	     -0.00816360	     -0.00816360	     -0.00816360	     -0.00816360	     -0.00816360	     -0.00816360	      0.03562910	     -0.00816360	     -0.00816360	     -0.00816360	      0.04833113	     -0.00816360	      0.05308572	     -0.00816360	      0.01923817	     -0.00816360	     -0.00816360	      0.06232417	     -0.00816360	     -0.00816360	      0.08006307	     -0.00816360	      0.21240398	     -0.00816360	      0.03230826	     -0.00816360	      0.09973896	     -0.00816360	      0.07693529	     -0.00816360	      0.03496830	     -0.00816360	      0.07502949	     -0.00816360	      0.07821690	     -0.00816360	      0.07494604
      0.14382826	      1.67466375	      1.66874717	     -0.00000001	     -0.00000004	      0.00000000	      0.00000001	      0.00013575	      0.00409097	      0.83106755	     -1.40766640	      0.00000000	      0.00000000	     -2.92077307	     -9.07670436	      0.67208203	     10.51607653	     -8.52103091	    -98.91678760	     -3.60492646	    -24.20764024	     -0.06291784	     -0.42250303	    -17.50779050	    -57.85488433	      4.61121998	     53.61270662	      0.00000000	      0.00000000	     -2.92077307	     -9.07670437	      0.67208201	     10.51607633	     -8.52103090	    -98.91678746	     -3.60492628	    -24.20764027	     -0.06291783	     -0.42250303	    -17.50779049	    -57.85488441	      4.61121997	     53.61270657	      0.00000000	      0.00000000	     -0.00851789	     -0.00851789	      0.11513322	     -0.00851789	     -0.00851789	      0.12358273	     -0.00851789	     -0.00851789	     -0.00851789	      0.08824180	     -0.00851789	     -0.00851789	      0.07965941	     -0.00851789	      0.08812957	     -0.00851789	      0.04134524	     -0.00851789	      0.04576053	     -0.00851789	      0.06120565	     -0.00851789	      0.05221389	     -0.00851789	     -0.00851789	     -0.00851789	     -0.00851789	     -0.00851789	     -0.00851789	     -0.00851789	     -0.00851789	     -0.00851789	      0.03556824	     -0.00851789	     -0.00851789	     -0.00851789	      0.04836657	     -0.00851789	      0.05311167	     -0.00851789	      0.01911095	     -0.00851789	     -0.00851789	      0.06228874	     -0.00851789	     -0.00851789	      0.08007776	     -0.00851789	      0.21241958	     -0.00851789	      0.03219796	     -0.00851789	      0.09976316	     -0.00851789	      0.07700582	     -0.00851789	      0.03488477	     -0.00851789	      0.07497966	     -0.00851789	      0.07817673	     -0.00851789	      0.07490805	     -0.00851789	     -0.00851789	      0.11513322	     -0.00851789	     -0.00851789	      0.12358273	     -0.00851789	     -0.00851789	     -0.00851789	      0.08824180	     -0.00851789	     -0.00851789	      0.07965941	     -0.00851789	      0.08812957	     -0.00851789	      0.04134524	     -0.00851789	      0.04576053	     -0.00851789	      0.06120565	     -0.00851789	      0.05221389	     -0.00851789	     -0.00851789	     -0.00851789	     -0.00851789	     -0.00851789	     -0.00851789	     -0.00851789	     -0.00851789	     -0.00851789	      0.03556824	     -0.00851789	     -0.00851789	     -0.00851789	      0.04836657	     -0.00851789	      0.05311167	     -0.00851789	      0.01911095	     -0.00851789	     -0.00851789	      0.06228874	     -0.00851789	     -0.00851789	      0.08007776	     -0.00851789	      0.21241958	     -0.00851789	      0.03219796	     -0.00851789	      0.09976316	     -0.00851789	      0.07700582	     -0.00851789	      0.03488477	     -0.00851789	      0.07497966	     -0.00851789	      0.07817673	     -0.00851789	      0.07490805
      0.14733098	      1.68000762	      1.38779804	     -0.00000001	     -0.00000003	      0.00000000	      0.00000001	      0.00015024	      0.00417889	      0.82607599	     -1.44243203	      0.00000000	      0.00000000	     -2.95198901	     -8.75345169	      0.70950684	     10.85294472	     -8.86949934	   -100.04722276	     -3.68979006	    -24.25017556	     -0.06439899	     -0.42324541	    -17.70816326	    -56.55761915	      4.79637395	     52.11083152	      0.00000000	      0.00000000	     -2.95198901	     -8.75345170	      0.70950681	     10.85294452	     -8.86949933	   -100.04722262	     -3.68978988	    -24.25017559	     -0.06439898	     -0.42324541	    -17.70816325	    -56.55761923	      4.79637393	     52.11083148	      0.00000000	      0.00000000	     -0.00896886	     -0.00896886	      0.11515018	     -0.00896886	     -0.00896886	      0.12356908	     -0.00896886	     -0.00896886	     -0.00896886	      0.08821391	     -0.00896886	     -0.00896886	      0.07979765	     -0.00896886	      0.08822666	     -0.00896886	      0.04124411	     -0.00896886	      0.04564935	     -0.00896886	      0.06106190	     -0.00896886	      0.05207361	     -0.00896886	     -0.00896886	     -0.00896886	     -0.00896886	     -0.00896886	     -0.00896886	     -0.00896886	     -0.00896886	     -0.00896886	      0.03549081	     -0.00896886	     -0.00896886	     -0.00896886	      0.04841023	     -0.00896886	      0.05314359	     -0.00896886	      0.01894758	     -0.00896886	     -0.00896886	      0.06224321	     -0.00896886	     -0.00896886	      0.08009724	     -0.00896886	      0.21243986	     -0.00896886	      0.03206081	     -0.00896886	      0.09979491	     -0.00896886	      0.07709357	     -0.00896886	      0.03478065	     -0.00896886	      0.07491614	     -0.00896886	      0.07812553	     -0.00896886	      0.07485963	     -0.00896886	     -0.00896886	      0.11515018	     -0.00896886	     -0.00896886	      0.12356908	     -0.00896886	     -0.00896886	     -0.00896886	      0.08821391	     -0.00896886	     -0.00896886	      0.07979765	     -0.00896886	      0.08822666	     -0.00896886	      0.04124411	     -0.00896886	      0.04564935	     -0.00896886	      0.06106190	     -0.00896886	      0.05207361	     -0.00896886	     -0.00896886	     -0.00896886	     -0.00896886	     -0.00896886	     -0.00896886	     -0.00896886	     -0.00896886	     -0.00896886	      0.03549081	     -0.00896886	     -0.00896886	     -0.00896886	      0.04841023	     -0.00896886	      0.05314359	     -0.00896886	      0.01894758	     -0.00896886	     -0.00896886	      0.06224321	     -0.00896886	     -0.00896886	      0.08009724	     -0.00896886	      0.21243986	     -0.00896886	      0.03206081	     -0.00896886	      0.09979491	     -0.00896886	      0.07709357	     -0.00896886	      0.03478065	     -0.00896886	      0.07491614	     -0.00896886	      0.07812553	     -0.00896886	      0.07485963
